<?xml version="1.0" encoding="UTF-8" standalone="no"?>
<!-- Created with Inkscape (http://www.inkscape.org/) -->

<svg
   version="1.1"
   id="svg363"
   width="64"
   height="64"
   viewBox="0 0 64 63.999999"
   shape-rendering="crispEdges"
   xmlns="http://www.w3.org/2000/svg"
   xmlns:svg="http://www.w3.org/2000/svg">
  <defs
     id="defs367" />
  <path class="favicon-path"
     style="display:inline;stroke:none;stroke-width:0.265764"
     d="m -0.9363,17.954273 v 0.26928 c 7.046479,4.58117 13.85075,11.43362 21.5082,14.81038 l -0.2623,0.53856 v 0.26928 l 1.04918,-0.26928 1.83607,2.42352 -3.67213,0.80784 1.04918,-2.6928 h -0.2623 c -1.08031,2.09823 -1.65298,2.02148 -3.67213,1.07712 l 2.36066,1.88496 -4.19673,11.30974 h 0.2623 l 4.19672,-11.30974 6.03279,2.96207 -5.2459,9.15551 c 2.75984,-0.89778 7.43055,-2.97419 9.44262,-5.11631 l -2.36066,0.26928 v 0.26928 h 0.78689 v 0.26928 l -7.34426,3.76991 c 2.45044,-3.75941 4.61629,-8.55932 9.44262,-5.11631 l -1.57377,-3.76992 1.31147,0.26928 -0.78688,1.3464 1.04918,-1.61568 -1.83607,-0.26928 2.36066,-2.42351 h 0.26229 v 3.23135 h 0.2623 v -3.23135 l 2.88525,2.42351 c -0.58335,0.063 -2.50414,0.38938 -1.31148,1.07712 l 1.04918,-0.80784 -0.26229,1.88496 h -0.2623 l -0.26229,-0.80784 h -0.2623 l 0.52459,1.07712 -1.83606,0.80784 v 1.61568 l -0.78689,-0.80784 h -0.2623 l -0.52459,0.80784 v 0.26928 h 1.04918 c -0.81573,1.06662 -2.54714,2.38043 -2.74754,3.76991 -0.61927,4.29609 6.63895,4.29582 6.01968,0 -0.2004,-1.38948 -1.93181,-2.70329 -2.74754,-3.76991 3.98845,0.0447 7.06255,3.37703 10.75409,4.57775 l -1.04918,-2.15423 h -0.26229 l 0.78688,1.61567 -7.34426,-3.76991 v -0.26928 h 0.78689 v -0.26928 l -2.88525,-0.53856 c 4.13666,-4.06532 5.68472,0.67239 8.65574,2.96208 l -3.93443,-6.732 6.03279,-2.96207 4.19672,11.30974 h 0.2623 l -4.19673,-11.30974 3.67213,-2.15424 v -0.26928 l -6.03278,1.61568 v 0.26928 l 1.57377,0.26928 -1.57377,1.07712 -0.78689,-0.26928 -3.40983,2.42351 -0.52459,-0.80784 v -0.26927 l 0.52459,-0.53856 0.52459,0.26928 h 0.26229 v -0.26928 l -0.52459,-0.26928 2.62295,-1.88496 v -0.26928 l -0.52459,-0.26928 1.83607,-2.15424 1.04918,0.26928 -0.2623,-0.80784 c 3.31122,-1.46003 9.19581,-5.05238 11.27869,-8.07839 -5.29442,3.12491 -11.63121,10.65405 -17.83606,10.50191 l -0.2623,1.07712 h -0.26229 l -0.52459,-2.15424 -2.09836,-2.42352 h -0.2623 c 0.86216,2.21968 1.47515,2.88237 -0.52459,4.57776 v -1.88496 h -0.2623 v 1.61568 c -1.83947,-1.53813 -1.02478,-2.34785 -0.26229,-4.30848 h -0.2623 l -2.09836,2.42352 -0.52459,2.15424 h -0.26229 l -0.2623,-1.07712 c -1.61731,0.0253 -3.20923,0.43758 -4.45901,-0.80784 l 1.04918,0.53856 v -0.26928 C 16.16883,30.009923 8.044421,24.881543 1.162061,19.031393 l 5.770491,2.15424 v -0.26928 L -0.9363,17.954273 m 41.70492,11.04047 c 6.6316,-4.11907 12.72131,-7.42445 20.19672,-9.96335 l -7.86885,5.65487 v 0.26928 l 9.96721,-6.73199 c -5.48931,-0.90548 -18.92354,6.58739 -22.29508,10.77119 M 0.899766,18.851863 c 0.202845,0 0.04202,0.13408 -0.08743,0.0898 l 0.08743,-0.0898 m 60.327864,0 c 0.20276,0 0.042,0.13408 -0.0873,0.0898 l 0.0873,-0.0898 m -54.032782,2.33377 v 0.26928 c 8.442122,2.52029 13.567032,8.15244 20.721312,12.92542 C 24.04245,28.378443 14.062,22.438883 7.194848,21.185633 m 23.344262,7.00127 0.26229,0.26928 -0.26229,-0.26928 m 0.52459,0 0.2623,0.26928 -0.2623,-0.26928 m 9.18033,0.80784 -6.03279,5.38559 c 1.56774,-1.09947 5.70518,-3.39642 6.03279,-5.38559 m -9.44263,0.53856 0.2623,0.26928 -0.2623,-0.26928 m -0.26229,1.07712 0.26229,0.26928 -0.26229,-0.26928 m 0.52459,0 0.2623,0.26928 -0.2623,-0.26928 m -0.2623,2.15423 v 1.61568 h 0.2623 l -0.2623,-1.61568 m 10.7541,1.3464 0.52459,1.61568 h 0.2623 l -0.78689,-1.61568 m -26.2295,0.53856 v 0.26928 l 1.04918,0.26928 v -0.26928 L 15.326,34.649613 m 14.42622,0 0.2623,0.26928 -0.2623,-0.26928 m 2.09837,0 0.26229,0.26928 -0.26229,-0.26928 m 7.86885,0 -1.57377,1.07712 1.57377,-1.07712 m -6.29508,0.26928 1.04918,3.23136 h 0.26229 c 0.29167,-1.47243 0.52354,-2.3045 2.09836,-2.42352 l -0.26229,0.80784 1.83606,-0.53856 c -0.9141,1.36336 -1.80301,2.52773 -3.40983,2.96208 v 0.26927 l 0.52459,0.26928 -0.78689,0.26928 0.2623,1.3464 1.31147,-0.53856 -0.78688,-0.26928 0.26229,-0.80784 h 0.2623 l 1.57377,2.96208 -3.93443,-1.07712 0.52459,-1.88496 h 0.78689 l -3.67213,-2.96207 2.09836,-1.61568 m -2.36066,1.61568 v 0.26928 l -3.67213,2.96207 1.04918,1.61568 -3.93443,1.07712 0.52459,-0.53856 0.78689,-2.15424 c -2.09558,-0.13652 -4.31245,-1.7899 -6.03279,-2.96207 1.83827,-0.51352 3.94985,-0.96564 5.77049,-0.26928 l -0.26229,-0.80784 c 1.57482,0.11902 1.80669,0.95109 2.09836,2.42352 h 0.26229 l 1.04918,-2.96208 2.36066,1.3464 m 8.65574,-0.53856 0.26229,0.26928 -0.26229,-0.26928 m -16,0.26928 1.57377,2.15424 -3.40984,-0.80784 v 0.26928 l 4.19672,1.07712 -0.26229,0.80783 c 0.76092,0 0.59357,0.32233 0,0.53856 l -0.78689,1.3464 2.88525,-0.53856 -0.78689,-1.88496 v -0.26927 -1.3464 h -0.26229 l -0.52459,1.07712 -2.62295,-2.42352 m 16.52459,0 0.26229,0.26928 -0.26229,-0.26928 m -14.68853,0.26928 0.78689,0.53856 -0.78689,-0.53856 m 10.22951,0.53856 0.78689,-0.53856 -0.78689,0.53856 m -0.78688,0.80784 0.78688,0.80784 -0.78688,-0.80784 m 3.67213,0.53856 0.78688,-0.26928 -0.78688,0.26928 m -11.0164,-0.26928 v 0.80784 h 0.2623 l -0.2623,-0.80784 m 6.55738,0 v 0.80784 h 0.2623 l -0.2623,-0.80784 m 3.67213,0 -0.26229,0.53856 0.26229,-0.53856 m -12.32787,0.26928 -0.26229,0.26928 0.26229,-0.26928 m 1.57377,1.88495 0.52459,0.80784 -0.52459,-0.80784 m 7.60656,0 0.2623,1.07712 v -0.26928 l -0.2623,-0.80784 m -3.93443,0.53856 v 1.88496 h 0.2623 l -0.2623,-1.88496 m 5.24591,0 v 0.26928 l 1.04918,0.53856 -1.04918,-0.80784 m -2.62295,1.07712 -0.2623,0.26928 0.2623,-0.26928 m -3.93443,0.26928 v 0.26928 l 1.31147,1.3464 h 0.2623 l -1.57377,-1.61568 m 3.40984,0.26928 -1.31148,1.07712 1.31148,-1.07712 m -3.14755,1.3464 0.2623,0.26928 -0.2623,-0.26928 m 2.88525,0.26928 v 0.26928 h -1.04918 l 1.04918,-0.26928 m -1.31147,1.07712 c 2.7457,2.92276 2.81547,4.2802 -0.2623,7.00127 l 0.2623,-7.00127 m -0.5246,0.26928 v 6.46271 h -0.26229 c -2.13115,-2.78785 -2.82859,-4.005 0.26229,-6.46271 z"
     id="path1211" />
</svg>
